<svg width="36" height="35" viewBox="0 0 36 35" fill="none" xmlns="http://www.w3.org/2000/svg">
<path fill-rule="evenodd" clip-rule="evenodd" d="M30.9896 29.3929L29.5407 23.9762C29.4576 23.6726 29.4991 23.3452 29.6416 23.0595C30.9065 20.5179 31.3281 17.4821 30.5502 14.3155C29.4932 10.0298 26.1559 6.58929 21.8923 5.45238C20.7284 5.14881 19.5823 5 18.4718 5C10.5027 5 4.27949 12.494 6.42913 20.8333C7.42675 24.6905 11.536 28.6845 15.4018 29.625C16.4469 29.881 17.4742 30 18.4718 30C20.6155 30 22.6227 29.4464 24.3863 28.494C24.5823 28.3869 24.802 28.3274 25.0158 28.3274C25.1227 28.3274 25.2295 28.3393 25.3364 28.369L30.5977 29.7798C30.6274 29.7857 30.6571 29.7917 30.6808 29.7917C30.8827 29.7917 31.0431 29.6012 30.9896 29.3929ZM27.878 24.4226L28.6975 27.4881L25.7818 26.7083C25.5324 26.6429 25.277 26.6071 25.0158 26.6071C24.517 26.6071 24.0122 26.7381 23.5609 26.9821C21.9754 27.8393 20.2652 28.2738 18.4718 28.2738C17.587 28.2738 16.6904 28.1607 15.8056 27.9464C12.5336 27.1488 8.92912 23.625 8.09777 20.3988C7.23079 17.0298 7.91368 13.5714 9.96831 10.9107C12.0229 8.25 15.1227 6.72619 18.4718 6.72619C19.4576 6.72619 20.4611 6.85714 21.4528 7.125C25.1167 8.10119 27.9611 11.0179 28.8815 14.7321C29.5288 17.3512 29.2616 19.9643 28.1036 22.2917C27.7711 22.9583 27.688 23.7143 27.878 24.4226Z" fill="#7C858E" stroke="#7C858E" stroke-width="1"/>
</svg>
