<svg width="46" height="41" viewBox="0 0 46 41" fill="none" xmlns="http://www.w3.org/2000/svg">
<path fill-rule="evenodd" clip-rule="evenodd" d="M17.9075 17.8891C23.0984 16.1124 23.9819 11.4843 23.3193 7.22909C23.3193 7.07555 23.4518 6.96588 23.5843 7.00975C28.5544 9.4225 34.1429 14.6867 34.1429 22.5829C34.1429 28.6368 29.4158 33.9887 22.5462 33.9887C20.0949 34.0994 17.6763 33.3963 15.6721 31.9904C13.6679 30.5845 12.1923 28.5559 11.4781 26.2248C10.7639 23.8936 10.8519 21.3927 11.7282 19.1167C12.6044 16.8408 14.219 14.9193 16.3171 13.6558C16.4496 13.568 16.6263 13.6558 16.6263 13.8093C16.6926 14.6209 16.9135 16.6607 17.8191 17.8891H17.9075Z" fill="#FE4C4C"/>
</svg>
