<svg width="74" height="74" viewBox="0 0 74 74" fill="none" xmlns="http://www.w3.org/2000/svg">
<g filter="url(#filter0_d_49_229)">
<circle cx="37" cy="36" r="29.5" stroke="#B7E2C7"/>
</g>
<path d="M48.5186 26.2907C47.7446 25.5655 46.8241 24.9898 45.8101 24.5967C44.796 24.2036 43.7085 24.0008 42.61 24C40.5321 24.0003 38.5301 24.7265 37.0003 26.0347C35.4708 24.7263 33.4687 24.0001 31.3907 24C30.2909 24.0011 29.2022 24.2045 28.1872 24.5985C27.1722 24.9925 26.2509 25.5694 25.4765 26.2959C22.1733 29.3819 22.1747 34.2088 25.4793 37.2818L35.6381 46.7327C36.4058 47.4469 37.5949 47.4469 38.3626 46.7327L48.5214 37.2818C51.826 34.2088 51.8274 29.3819 48.5186 26.2907Z" fill="#20ECB9"/>
<defs>
<filter id="filter0_d_49_229" x="0" y="0" width="74" height="74" filterUnits="userSpaceOnUse" color-interpolation-filters="sRGB">
<feFlood flood-opacity="0" result="BackgroundImageFix"/>
<feColorMatrix in="SourceAlpha" type="matrix" values="0 0 0 0 0 0 0 0 0 0 0 0 0 0 0 0 0 0 127 0" result="hardAlpha"/>
<feOffset dy="1"/>
<feGaussianBlur stdDeviation="3.5"/>
<feColorMatrix type="matrix" values="0 0 0 0 0 0 0 0 0 0 0 0 0 0 0 0 0 0 0.16 0"/>
<feBlend mode="normal" in2="BackgroundImageFix" result="effect1_dropShadow_49_229"/>
<feBlend mode="normal" in="SourceGraphic" in2="effect1_dropShadow_49_229" result="shape"/>
</filter>
</defs>
</svg>
