<svg width="32" height="32" viewBox="0 0 21 27" fill="none" xmlns="http://www.w3.org/2000/svg">
<path d="M10.5025 27C11.2333 27.0003 11.9392 26.7337 12.4874 26.2503C13.0356 25.767 13.3886 25.1001 13.4799 24.375C13.5054 24.1695 13.3344 24 13.1274 24H7.87747C7.67047 24 7.49947 24.1695 7.52497 24.375C7.61633 25.1001 7.96927 25.767 8.51751 26.2503C9.06575 26.7337 9.77158 27.0003 10.5025 27ZM3.00249 10.5C3.00249 8.51088 3.79266 6.60322 5.19918 5.1967C6.6057 3.79018 8.51334 3 10.5025 3C12.4916 3 14.3992 3.79018 15.8057 5.1967C17.2122 6.60322 18.0024 8.51088 18.0024 10.5V14.9205C18.0024 14.9955 18.0249 15.0675 18.0654 15.129L20.6199 18.9615C20.8476 19.3045 20.978 19.7028 20.9975 20.114C21.0169 20.5252 20.9245 20.934 20.7302 21.297C20.5359 21.6599 20.2469 21.9634 19.8939 22.1752C19.5409 22.3871 19.1371 22.4993 18.7254 22.5H2.27949C1.86697 22.501 1.46194 22.3898 1.10779 22.1782C0.753638 21.9666 0.463711 21.6627 0.269059 21.299C0.0744078 20.9353 -0.017635 20.5254 0.00278923 20.1134C0.0232134 19.7014 0.155335 19.3027 0.385003 18.96L2.93949 15.129C2.98025 15.0671 3.00214 14.9946 3.00249 14.9205V10.5ZM10.5025 5.25C9.11008 5.25 7.77473 5.80312 6.79016 6.78769C5.8056 7.77226 5.25248 9.10761 5.25248 10.5V14.9205C5.25248 15.4395 5.09948 15.945 4.81148 16.3755L2.25699 20.2095C2.25396 20.2139 2.25238 20.2192 2.2525 20.2245L2.25399 20.2335C2.25399 20.2365 2.257 20.2395 2.26 20.2425L2.26899 20.2485L2.27949 20.25H18.7254L18.7359 20.2485L18.7449 20.2425L18.7509 20.2335L18.7524 20.223C18.7525 20.2177 18.751 20.2124 18.7479 20.208L16.1934 16.377C15.9057 15.9463 15.7522 15.44 15.7524 14.922V10.5C15.7524 9.10761 15.1993 7.77226 14.2147 6.78769C13.2302 5.80312 11.8948 5.25 10.5025 5.25Z" fill="#7C858E"/>
<path d="M10.5025 5.25C9.11008 5.25 7.77473 5.80312 6.79016 6.78769C5.8056 7.77226 5.25248 9.10761 5.25248 10.5V14.9205C5.25248 15.4395 5.09948 15.945 4.81148 16.3755L2.25699 20.2095C2.25396 20.2139 2.25238 20.2192 2.2525 20.2245L2.25399 20.2335C2.25399 20.2365 2.257 20.2395 2.26 20.2425L2.26899 20.2485L2.27949 20.25H18.7254L18.7359 20.2485L18.7449 20.2425L18.7509 20.2335L18.7524 20.223C18.7525 20.2177 18.751 20.2124 18.7479 20.208L16.1934 16.377C15.9057 15.9463 15.7522 15.44 15.7524 14.922V10.5C15.7524 9.10761 15.1993 7.77226 14.2147 6.78769C13.2302 5.80312 11.8948 5.25 10.5025 5.25Z" fill="#7C858E"/>
<circle cx="14" cy="4" r="3.75" fill="url(#paint0_linear_55_64)" stroke="#BD3661" stroke-width="0.5"/>
<defs>
<linearGradient id="paint0_linear_55_64" x1="11.7143" y1="6.85714" x2="17.4286" y2="1.14286" gradientUnits="userSpaceOnUse">
<stop stop-color="#F8366A"/>
<stop offset="1" stop-color="#F55F47"/>
</linearGradient>
</defs>
</svg>
