<svg width="57" height="57" viewBox="0 0 57 57" fill="none" xmlns="http://www.w3.org/2000/svg">
<g filter="url(#filter0_d_49_219)">
<circle cx="21.5" cy="21.5" r="21" transform="matrix(-1 0 0 1 50 6)" stroke="#9A73B2"/>
</g>
<path d="M22.4923 27.4158L30.8406 17.5079C31.1748 17.1112 31.8175 17.4231 31.7126 17.9311L30.0373 26.0502C29.9848 26.3046 30.1357 26.5568 30.3847 26.6306L34.2676 27.7827C34.6131 27.8852 34.74 28.3086 34.5077 28.5842L26.1594 38.4921C25.8252 38.8888 25.1825 38.5769 25.2874 38.0689L26.9627 29.9498C27.0152 29.6954 26.8643 29.4432 26.6153 29.3694L22.7324 28.2173C22.3869 28.1148 22.26 27.6914 22.4923 27.4158Z" fill="url(#paint0_linear_49_219)"/>
<defs>
<filter id="filter0_d_49_219" x="0" y="0" width="57" height="57" filterUnits="userSpaceOnUse" color-interpolation-filters="sRGB">
<feFlood flood-opacity="0" result="BackgroundImageFix"/>
<feColorMatrix in="SourceAlpha" type="matrix" values="0 0 0 0 0 0 0 0 0 0 0 0 0 0 0 0 0 0 127 0" result="hardAlpha"/>
<feOffset dy="1"/>
<feGaussianBlur stdDeviation="3.5"/>
<feColorMatrix type="matrix" values="0 0 0 0 0 0 0 0 0 0 0 0 0 0 0 0 0 0 0.16 0"/>
<feBlend mode="normal" in2="BackgroundImageFix" result="effect1_dropShadow_49_219"/>
<feBlend mode="normal" in="SourceGraphic" in2="effect1_dropShadow_49_219" result="shape"/>
</filter>
<linearGradient id="paint0_linear_49_219" x1="28.5" y1="16" x2="28.5" y2="40" gradientUnits="userSpaceOnUse">
<stop stop-color="#925EB8"/>
<stop offset="1" stop-color="#9D40D6"/>
</linearGradient>
</defs>
</svg>
