<svg width="35" height="35" viewBox="0 0 35 35" fill="none" xmlns="http://www.w3.org/2000/svg">
<path fill-rule="evenodd" clip-rule="evenodd" d="M30.3297 7.53665C30.1342 7.20124 29.7604 7 29.3578 7L5.61248 7.01677C5.13515 7.01677 4.72109 7.30187 4.55432 7.7323C4.43355 8.04535 4.4623 8.38076 4.62333 8.65467C4.68659 8.75529 4.7671 8.85033 4.86486 8.93418L14.0145 16.6038L16.2458 28.125C16.3321 28.5778 16.6887 28.9132 17.1602 28.9859C17.6261 29.0586 18.0861 28.8461 18.3277 28.4492L30.324 8.62672C30.531 8.28572 30.531 7.87206 30.3297 7.53665ZM7.22847 8.67703H26.5629L14.9231 15.1336L7.22847 8.67703ZM17.6491 26.2579L15.7743 16.5759L27.4313 10.1137L17.6491 26.2579Z" fill="#7C858E" stroke="#7C858E" stroke-width="1"/>
</svg>
