<svg width="25" height="25" viewBox="0 0 25 25" fill="none" xmlns="http://www.w3.org/2000/svg">
<path fill-rule="evenodd" clip-rule="evenodd" d="M12.5 25C19.4036 25 25 19.4036 25 12.5C25 5.59644 19.4036 0 12.5 0C5.59644 0 0 5.59644 0 12.5C0 19.4036 5.59644 25 12.5 25ZM12.5265 4C12.0738 4 6.57382 11.619 7.02645 11.619H10.9791L11.5738 19.2381C11.5738 19.6589 12.0003 20 12.5265 20C13.0526 20 13.4791 19.6589 13.4791 19.2381L13.9791 11.619H18.0265C18.5738 11.619 12.9791 4 12.5265 4Z" fill="#F9F9F9"/>
</svg>
