<svg width="23" height="21" viewBox="0 0 23 21" fill="none" xmlns="http://www.w3.org/2000/svg">
<path fill-rule="evenodd" clip-rule="evenodd" d="M20.5951 2.91632H22.3824C22.6482 2.91632 22.9031 3.04565 23.0911 3.27585C23.279 3.50605 23.3846 3.81828 23.3846 4.14383C23.3846 4.46939 23.279 4.78161 23.0911 5.01181C22.9031 5.24202 22.6482 5.37134 22.3824 5.37134H20.5024C19.9427 6.90505 18.471 8 16.7437 8C15.0163 8 13.5446 6.90505 12.9849 5.37134H1.0022C0.736398 5.37134 0.481485 5.24202 0.293537 5.01181C0.105588 4.78161 0 4.46939 0 4.14383C0 3.81828 0.105588 3.50605 0.293537 3.27585C0.481485 3.04565 0.736398 2.91632 1.0022 2.91632H12.8922C13.3646 1.23371 14.9101 0 16.7437 0C18.5772 0 20.1227 1.23371 20.5951 2.91632ZM23.0911 18.1053C22.9031 18.3355 22.6482 18.4648 22.3824 18.4648H10.4668C9.88232 19.9493 8.43565 20.9999 6.74359 20.9999C5.05154 20.9999 3.60487 19.9493 3.02034 18.4648H1.0022C0.736398 18.4648 0.481485 18.3355 0.293537 18.1053C0.105588 17.8751 0 17.5628 0 17.2373C0 16.9117 0.105588 16.5995 0.293537 16.3693C0.481485 16.1391 0.736398 16.0098 1.0022 16.0098H2.86708C3.30768 14.2795 4.87619 12.9999 6.74359 12.9999C8.61099 12.9999 10.1795 14.2795 10.6201 16.0098H22.3824C22.6482 16.0098 22.9031 16.1391 23.0911 16.3693C23.279 16.5995 23.3846 16.9117 23.3846 17.2373C23.3846 17.5628 23.279 17.8751 23.0911 18.1053Z" fill="#7D868F"/>
</svg>
