<svg width="30" height="30" viewBox="0 0 30 30" fill="none" xmlns="http://www.w3.org/2000/svg">
<path d="M10.6622 6.22514C11.1097 5.16429 12.4366 4.80877 13.3546 5.50371C14.0741 6.04842 15.0681 6.04842 15.7877 5.50371C16.7057 4.80877 18.0325 5.16429 18.4801 6.22514C18.8309 7.05666 19.6917 7.55364 20.5872 7.44168C21.7297 7.29886 22.701 8.27017 22.5582 9.41267C22.4462 10.3082 22.9432 11.169 23.7747 11.5198C24.8356 11.9673 25.1911 13.2942 24.4962 14.2122C23.9515 14.9318 23.9515 15.9257 24.4962 16.6453C25.1911 17.5633 24.8356 18.8902 23.7747 19.3377C22.9432 19.6885 22.4462 20.5493 22.5582 21.4448C22.701 22.5873 21.7297 23.5586 20.5872 23.4158C19.6917 23.3039 18.8309 23.8009 18.4801 24.6324C18.0325 25.6932 16.7057 26.0487 15.7877 25.3538C15.0681 24.8091 14.0741 24.8091 13.3546 25.3538C12.4366 26.0487 11.1097 25.6932 10.6622 24.6324C10.3114 23.8009 9.45056 23.3039 8.55504 23.4158C7.41254 23.5587 6.44123 22.5873 6.58405 21.4448C6.696 20.5493 6.19903 19.6885 5.3675 19.3377C4.30666 18.8902 3.95113 17.5633 4.64607 16.6453C5.19079 15.9257 5.19079 14.9318 4.64607 14.2122C3.95113 13.2942 4.30666 11.9673 5.3675 11.5198C6.19903 11.169 6.696 10.3082 6.58405 9.41267C6.44123 8.27017 7.41254 7.29886 8.55504 7.44168C9.45056 7.55364 10.3114 7.05666 10.6622 6.22514Z" fill="#2B8BFB" stroke="#416692" stroke-width="0.25"/>
<path d="M11.25 14.8975L13.75 17.8975L18.75 12.8975" stroke="#EFFFFF" stroke-width="2" stroke-linecap="round"/>
</svg>
